<svg xmlns="http://www.w3.org/2000/svg" width="650" height="380">
<rect x="0" y="0" width="650" height="380" fill="white"/>
<text x="30" y="30" font-size="18" font-family="Arial">Perceived MAcc Necessity by Awareness of Alternative Pathway</text>
<line x1="110" y1="300" x2="520" y2="300" stroke="black"/>
<line x1="110" y1="300" x2="110" y2="80" stroke="black"/>
<line x1="105" y1="256.0" x2="110" y2="256.0" stroke="black"/>
<text x="82" y="260.0" font-size="11" font-family="Arial">1</text>
<line x1="105" y1="212.0" x2="110" y2="212.0" stroke="black"/>
<text x="82" y="216.0" font-size="11" font-family="Arial">2</text>
<line x1="105" y1="168.0" x2="110" y2="168.0" stroke="black"/>
<text x="82" y="172.0" font-size="11" font-family="Arial">3</text>
<line x1="105" y1="124.0" x2="110" y2="124.0" stroke="black"/>
<text x="82" y="128.0" font-size="11" font-family="Arial">4</text>
<line x1="105" y1="80.0" x2="110" y2="80.0" stroke="black"/>
<text x="82" y="84.0" font-size="11" font-family="Arial">5</text>
<rect x="140" y="138.28070175438594" width="160" height="161.71929824561406" fill="#7A9CC6"/>
<text x="202.0" y="130.28070175438594" font-size="12" font-family="Arial">3.68</text>
<text x="185.0" y="320" font-size="12" font-family="Arial">Not aware</text>
<rect x="390" y="161.75" width="160" height="138.25" fill="#D4835A"/>
<text x="452.0" y="153.75" font-size="12" font-family="Arial">3.14</text>
<text x="435.0" y="320" font-size="12" font-family="Arial">Aware</text>
</svg>